<?xml version='1.0' encoding='utf-8'?>
<svg xmlns="http://www.w3.org/2000/svg" enable-background="new 0 0 1200 840" version="1.1" viewBox="0 0 1200 840">
<rect x=".012" y=".06" width="1200" height="839.94" fill="#C2E3E5"/>
<path d="m1160 40.057v759.95h-1120v-759.95h1120m40-40h-1200v839.94h1200v-839.94z" fill="none"/>
<line x1="560.74" x2="640.65" y1=".06" y2=".06" fill="#44436D"/>
<line x1="800.47" x2="880.38" y1=".06" y2=".06" fill="#44436D"/>
<line x1="1040.2" x2="1120.1" y1=".06" y2=".06" fill="#44436D"/>
<line x1="680.6" x2="760.52" y1=".06" y2=".06" fill="#D05249"/>
<line x1="920.34" x2="1000.2" y1=".06" y2=".06" fill="#D05249"/>
<path d="m41.283 40.057h79.911l40-39.998h-79.907l-40 39.998zm-1.272 1.272l-40 39.997v79.906l40-39.997v-79.901zm241-1.272h79.91l40-39.998h-79.91l-40 39.998zm-241 240.98l-40 39.997v79.906l40-39.997v-79.91zm480.73-240.98h79.91l40-39.998h-79.909l-40 39.998zm-480.73 480.7l-40 39.997v79.903l40-39.997v-79.9zm0 239.72l-40 39.996v39.53h40.379l40-39.998h-40.38v-39.53zm720.46-720.42h79.909l40-39.998h-79.909l-40 39.998zm239.73 0h79.908l40-39.998h-79.908l-40 39.998zm-799.99 799.94h79.909l40-39.998h-79.909l-40 40zm239.73 0h79.909l40-39.998h-79.909l-40 40zm720.06-720.02v79.904l40-39.998v-79.896l-40 39.996zm-480.33 720.02h79.908l40-39.998h-79.908l-40 40zm480.33-400.4l40-39.998v-79.904l-40 39.998v79.9zm0 239.72l40-39.997v-79.904l-40 39.997v79.9zm-240.6 160.68h79.909l40.001-39.998h-79.91l-39.99 40zm280.6 0v-40.874l-40.875 40.874h40.9z" fill="#44436D"/>
<path d="m0.012 0.06v31.889l31.89-31.889h-31.89zm0 281.03l40-39.997v-79.909l-40 39.997v79.91zm161.14-241.03h79.913l40-39.998h-79.913l-40 39.998zm-161.14 480.74l40-39.996v-79.907l-40 39.998v79.91zm400.87-480.74h79.91l40-39.998h-79.909l-40 39.998zm239.72 0h79.911l40-39.998h-79.911l-40 39.998zm-640.59 720.46l40-39.997v-79.906l-40 39.998v79.91zm80.332 79.48h79.91l40-39.998h-79.91l-39.996 40zm800-799.94h79.911l40-39.998h-79.911l-39.95 39.998zm279.76-39.997l-40 39.998h39.9v39.971l40-39.998v-39.971h-39.9zm-840.03 839.94h79.91l40-39.998h-79.909l-40 40zm839.93-520.26l40-39.998v-79.904l-40 39.998v79.9zm-600.2 520.26h79.907l40-39.998h-79.907l-40 40zm239.73 0h79.91l40-39.998h-79.91l-40 40zm360.47-280.54l40-39.998v-79.905l-40 39.998v79.9zm-120.7 280.54h79.908l39.998-39.998h-79.906l-40 40zm120.7-40.83l40-39.997v-79.901l-40 39.997v79.9z" fill="#D05249"/>
	<rect x="140" y="110" width="270.01" height="140" fill="#44436D"/>
<path d="m388.01 132v95.997h-226.01v-95.997h226.01m2-2h-230.01v99.997h230.01v-100z" fill="#DFEAEA"/>
<g fill="#fff">
		<path d="m211.14 176.07l-2.057-5.504h-10.248l-2.039 5.504h-5.504l10.174-26.573h5.003l10.174 26.573h-5.49zm-6.34-17.08c-0.136-0.321-0.281-0.704-0.436-1.149-0.154-0.445-0.287-0.858-0.398-1.242-0.099 0.383-0.229 0.797-0.389 1.242-0.161 0.445-0.309 0.828-0.445 1.149l-2.62 6.91h6.913l-2.61-6.91z"/>
		<path d="m221.66 176.07v-26.573h5.115v26.573h-5.12z"/>
		<path d="m233.8 176.07v-26.573h12.342c1.681 0 3.086 0.231 4.216 0.695s2.042 1.078 2.733 1.844c0.692 0.766 1.186 1.649 1.482 2.649 0.297 1.001 0.445 2.045 0.445 3.132 0 0.754-0.108 1.517-0.324 2.289s-0.541 1.504-0.973 2.196c-0.433 0.692-0.97 1.319-1.612 1.881-0.643 0.562-1.39 0.998-2.242 1.306l5.151 10.581h-5.763l-4.967-9.914h-5.355v9.914h-5.14zm12.42-14.77c0.655 0 1.205-0.095 1.65-0.287 0.445-0.191 0.803-0.448 1.075-0.769 0.271-0.321 0.466-0.692 0.583-1.112 0.118-0.42 0.176-0.858 0.176-1.316 0-0.42-0.053-0.836-0.158-1.25s-0.287-0.785-0.546-1.112c-0.26-0.327-0.615-0.59-1.065-0.788-0.451-0.197-1.022-0.296-1.715-0.296h-7.283v6.931h7.3z"/>
		<path d="m289.14 176.07v-13.657c0-0.148 3e-3 -0.321 9e-3 -0.519s0.012-0.398 0.019-0.603c6e-3 -0.204 0.012-0.392 0.019-0.565 6e-3 -0.173 0.015-0.309 0.027-0.408-0.136 0.42-0.269 0.797-0.398 1.13s-0.262 0.655-0.398 0.963l-6.449 14.121-6.486-14.121c-0.136-0.309-0.269-0.63-0.398-0.963s-0.263-0.71-0.398-1.13c0.012 0.099 0.021 0.235 0.028 0.408 6e-3 0.173 0.012 0.361 0.019 0.565 6e-3 0.204 0.012 0.405 0.019 0.603 6e-3 0.198 9e-3 0.371 9e-3 0.519v13.657h-5.133v-26.573h5.208l6.523 14.658c0.136 0.321 0.259 0.627 0.371 0.917 0.111 0.291 0.216 0.59 0.315 0.899 0.099-0.309 0.204-0.608 0.315-0.899 0.111-0.29 0.235-0.596 0.371-0.917l6.635-14.658h4.892v26.573h-5.11z"/>
		<path d="m318.94 176.07l-2.057-5.504h-10.25l-2.039 5.504h-5.504l10.174-26.573h5.003l10.174 26.573h-5.49zm-6.34-17.08c-0.136-0.321-0.281-0.704-0.436-1.149-0.154-0.445-0.287-0.858-0.398-1.242-0.099 0.383-0.229 0.797-0.389 1.242-0.161 0.445-0.309 0.828-0.445 1.149l-2.632 6.912h6.913l-2.6-6.91z"/>
		<path d="m329.46 176.07v-26.573h5.114v26.573h-5.11z"/>
		<path d="m341.6 176.07v-26.573h5.133v21.644h12.824v4.929h-17.95z"/>
		<path d="m212.77 212.61v-16.608h7.123c1.05 0 1.935 0.152 2.652 0.457 0.718 0.305 1.301 0.707 1.749 1.205s0.77 1.06 0.967 1.686c0.197 0.625 0.295 1.258 0.295 1.899 0 0.401-0.046 0.809-0.139 1.222s-0.236 0.815-0.429 1.205-0.44 0.755-0.741 1.095-0.662 0.638-1.083 0.897-0.903 0.461-1.448 0.608c-0.544 0.147-1.152 0.22-1.824 0.22h-3.915v6.115h-3.21zm7.26-9.16c0.409 0 0.753-0.065 1.031-0.197 0.278-0.131 0.504-0.301 0.678-0.509 0.173-0.208 0.299-0.444 0.376-0.707s0.116-0.525 0.116-0.788c0-0.239-0.033-0.488-0.099-0.747s-0.182-0.496-0.348-0.712-0.392-0.394-0.677-0.533c-0.286-0.139-0.645-0.208-1.077-0.208h-4.054v4.401h4.05z"/>
		<path d="m237.66 212.61l-1.286-3.44h-6.405l-1.274 3.44h-3.44l6.359-16.608h3.127l6.359 16.608h-3.44zm-3.96-10.68c-0.085-0.201-0.176-0.44-0.272-0.718-0.097-0.278-0.179-0.537-0.249-0.776-0.062 0.24-0.143 0.498-0.243 0.776-0.101 0.278-0.193 0.517-0.278 0.718l-1.645 4.32h4.32l-1.64-4.32z"/>
		<path d="m244.11 212.61v-16.608h7.714c1.05 0 1.928 0.145 2.635 0.434s1.276 0.674 1.708 1.152c0.432 0.479 0.741 1.031 0.927 1.656 0.185 0.625 0.278 1.278 0.278 1.958 0 0.471-0.068 0.948-0.203 1.43-0.135 0.483-0.338 0.94-0.608 1.373s-0.606 0.824-1.007 1.176c-0.402 0.351-0.869 0.624-1.401 0.816l3.22 6.613h-3.602l-3.104-6.196h-3.347v6.196h-3.22zm7.76-9.23c0.409 0 0.753-0.06 1.031-0.179s0.502-0.28 0.672-0.481c0.169-0.201 0.291-0.432 0.365-0.695 0.073-0.262 0.11-0.537 0.11-0.822 0-0.263-0.033-0.523-0.098-0.782-0.066-0.259-0.18-0.49-0.342-0.695s-0.384-0.369-0.666-0.493c-0.282-0.123-0.639-0.185-1.071-0.185h-4.552v4.332h4.55z"/>
		<path d="m277.65 212.61l-1.286-3.44h-6.405l-1.274 3.44h-3.44l6.359-16.608h3.127l6.359 16.608h-3.45zm-3.96-10.68c-0.085-0.201-0.176-0.44-0.272-0.718-0.097-0.278-0.179-0.537-0.249-0.776-0.062 0.24-0.143 0.498-0.243 0.776-0.101 0.278-0.193 0.517-0.278 0.718l-1.645 4.32h4.32l-1.63-4.32z"/>
		<path d="m289.63 212.61h-3.081l-5.884-16.608h3.463l3.648 10.863c0.063 0.178 0.122 0.369 0.18 0.573s0.11 0.396 0.156 0.573c0.039-0.169 0.085-0.355 0.14-0.556 0.054-0.201 0.112-0.398 0.173-0.591l3.648-10.863h3.417l-5.87 16.62z"/>
		<path d="m298.7 212.61v-16.608h3.197v16.608h-3.2z"/>
		<path d="m313.02 212.9c-0.896 0-1.699-0.118-2.409-0.353-0.71-0.236-1.338-0.556-1.882-0.961s-1.009-0.884-1.396-1.436c-0.386-0.552-0.701-1.147-0.944-1.784s-0.421-1.301-0.533-1.992-0.168-1.38-0.168-2.067c0-0.68 0.056-1.365 0.168-2.056s0.29-1.355 0.533-1.992 0.558-1.231 0.944-1.784c0.387-0.552 0.852-1.031 1.396-1.437 0.544-0.405 1.172-0.726 1.882-0.961s1.513-0.354 2.409-0.354 1.696 0.118 2.403 0.354 1.33 0.556 1.871 0.961c0.541 0.406 1.004 0.884 1.39 1.437 0.386 0.552 0.701 1.146 0.944 1.784 0.243 0.637 0.42 1.301 0.533 1.992 0.112 0.691 0.168 1.376 0.168 2.056 0 0.687-0.056 1.376-0.168 2.067s-0.29 1.355-0.533 1.992-0.558 1.231-0.944 1.784c-0.386 0.552-0.85 1.031-1.39 1.436s-1.164 0.726-1.871 0.961c-0.7 0.23-1.5 0.35-2.4 0.35zm0-3.09c0.741 0 1.364-0.174 1.87-0.521s0.915-0.791 1.228-1.332 0.539-1.133 0.677-1.778c0.139-0.645 0.208-1.268 0.208-1.87 0-0.425-0.029-0.855-0.087-1.292-0.058-0.436-0.152-0.857-0.284-1.263-0.131-0.405-0.301-0.787-0.51-1.146-0.208-0.359-0.459-0.672-0.752-0.938-0.293-0.267-0.635-0.477-1.025-0.631s-0.832-0.231-1.326-0.231c-0.502 0-0.948 0.081-1.338 0.243s-0.734 0.38-1.031 0.654-0.55 0.593-0.759 0.956-0.378 0.749-0.51 1.158-0.226 0.826-0.284 1.251-0.087 0.838-0.087 1.239c0 0.633 0.07 1.275 0.208 1.928 0.139 0.653 0.365 1.243 0.678 1.772s0.724 0.961 1.233 1.297 1.14 0.5 1.88 0.5z"/>
		<path d="m334.39 212.61l-6.59-9.682c-0.108-0.162-0.227-0.361-0.354-0.597-0.128-0.235-0.238-0.453-0.331-0.654 0.023 0.178 0.041 0.386 0.052 0.625 0.012 0.24 0.017 0.448 0.017 0.625v9.682h-3.185v-16.608h3.012l6.428 9.566c0.101 0.155 0.216 0.348 0.348 0.579 0.131 0.232 0.247 0.456 0.347 0.672-0.023-0.224-0.041-0.45-0.052-0.678-0.012-0.228-0.018-0.418-0.018-0.573v-9.566h3.173v16.608h-2.85z"/>
</g>
	<path d="m1089 312.99c0-3.349 2.059-6.213 4.979-7.405v-6.588c-2.92-1.192-4.979-4.057-4.979-7.405s2.059-6.213 4.979-7.406v-6.588c-2.92-1.192-4.979-4.057-4.979-7.405 0-3.349 2.059-6.213 4.979-7.406v-6.588c-2.92-1.192-4.979-4.057-4.979-7.406s2.059-6.213 4.979-7.405v-6.588c-2.92-1.192-4.979-4.057-4.979-7.405s2.059-6.213 4.979-7.406v-6.588c-2.92-1.192-4.979-4.057-4.979-7.406 0-3.348 2.059-6.213 4.979-7.405v-6.588c-2.92-1.192-4.979-4.057-4.979-7.406s2.059-6.213 4.979-7.405v-6.588c-2.92-1.192-4.979-4.057-4.979-7.405s2.059-6.213 4.979-7.406v-6.53c-2.92-1.192-4.979-4.057-4.979-7.406 0-3.348 2.059-6.213 4.979-7.405v-6.58c-2.92-1.192-4.979-4.057-4.979-7.405s2.059-6.213 4.979-7.405v-6.588c-2.92-1.192-4.979-4.057-4.979-7.405 0-3.349 2.059-6.213 4.979-7.406v-14.602h-12.586c-1.188 2.931-4.057 5-7.414 5-3.355 0-6.225-2.069-7.414-5h-6.174c-1.188 2.931-4.057 5-7.412 5-3.357 0-6.227-2.069-7.414-5h-6.174c-1.188 2.931-4.057 5-7.412 5-3.357 0-6.227-2.069-7.414-5h-6.175c-1.188 2.931-4.057 5-7.413 5s-6.226-2.069-7.413-5h-6.174c-1.188 2.931-4.057 5-7.413 5s-6.227-2.069-7.414-5h-6.174c-1.188 2.931-4.057 5-7.413 5s-6.226-2.069-7.413-5h-6.174c-1.188 2.931-4.057 5-7.413 5s-6.227-2.069-7.414-5h-6.174c-1.188 2.931-4.057 5-7.413 5s-6.226-2.069-7.413-5h-6.174c-1.188 2.931-4.057 5-7.413 5-3.357 0-6.227-2.069-7.414-5h-12.587v14.262c3.448 0.89 6 4.012 6 7.738s-2.552 6.848-6 7.737v5.924c3.448 0.89 6 4.011 6 7.737s-2.552 6.848-6 7.737v5.924c3.448 0.89 6 4.012 6 7.737 0 3.726-2.552 6.848-6 7.738v5.924c3.448 0.89 6 4.012 6 7.738s-2.552 6.848-6 7.737v5.924c3.448 0.89 6 4.011 6 7.737s-2.552 6.848-6 7.738v5.924c3.448 0.89 6 4.012 6 7.737 0 3.726-2.552 6.848-6 7.738v5.924c3.448 0.89 6 4.012 6 7.738s-2.552 6.848-6 7.737v5.924c3.448 0.89 6 4.011 6 7.737s-2.552 6.848-6 7.738v5.924c3.448 0.89 6 4.012 6 7.738s-2.552 6.848-6 7.737v5.924c3.448 0.89 6 4.012 6 7.738s-2.552 6.848-6 7.737v5.924c3.448 0.89 6 4.012 6 7.737 0 3.726-2.552 6.848-6 7.738v14.262h12.587c1.188-2.931 4.057-5 7.414-5 3.356 0 6.226 2.069 7.413 5h6.174c1.188-2.931 4.057-5 7.413-5s6.226 2.069 7.413 5h6.174c1.188-2.931 4.058-5 7.414-5s6.226 2.069 7.413 5h6.174c1.188-2.931 4.057-5 7.413-5s6.226 2.069 7.413 5h6.174c1.188-2.931 4.058-5 7.414-5s6.226 2.069 7.413 5h6.174c1.188-2.931 4.057-5 7.413-5s6.226 2.069 7.413 5h6.175c1.188-2.931 4.057-5 7.414-5 3.355 0 6.225 2.069 7.412 5h6.174c1.188-2.931 4.057-5 7.414-5 3.355 0 6.225 2.069 7.412 5h6.174c1.189-2.931 4.059-5 7.414-5 3.357 0 6.227 2.069 7.414 5h12.586v-14.594c-2.9-1.2-5-4.06-5-7.41z" fill="#fff"/>
	<rect x="902.02" y="92.996" width="176" height="225.99" fill="#C6C6C6"/>
<path d="m1039.5 200.24c67.707-104.48-63.253-118-94.253-79.247-25.641 27.545-9.017 34.554-20.187 46.487-4.01 3.094-17.839 18.356-13.411 23.329 2.386 2.181 4.021 3.816 7.098 3.297 2.57-0.434 4.145 4.061 3.259 5.628-1.567 3.407-1.091 4.225 2.452 7.63 1.5 1.159 0.629 1.521-0.121 4.587-1.173 4.407 6.458 5.906 2.643 10.334-2.077 2.707-2.726 1.703-2.521 6.745 0.173 4.24 1.65 4.543 13.159 15.567 13.407 12.842 61.578 31.145 78.046 3.938 16.5-27.22 23.8-48.31 23.8-48.31z" fill="#fff"/>
<path d="m931.46 318.99s26.503-38.044 30.177-39.094 2.361-4.723 2.361-7.347 1.177-4.495 4.461-8.134 53.269-60.218 61.666-65.466c-2.367 1.865-101.86 36.529-101.58 37.139 0.54 1.19 17.349 13.372 9.214 29.377-9.42 21.21-12.57 49.32-6.27 53.52z" fill="#9D9D9C"/>
<path d="m1059.8 268.11c-1.891-2.919-4.02-5.465-4.025-5.472-0.57-6.257-4.553-16.113-5.479-18.426-1.051-2.624-3.674-10.496-3.412-18.105 0.264-7.609-3.41-19.155-4.984-22.828s0.631-7.879 0.631-7.879c-24.404 0-88.537 65.342-88.537 65.342l-7.609 8.659-14.963 49.589h146.57v-38.008c-5.8-5.4-16.5-10.21-18.2-12.86z" fill="#878787"/>
<path d="m1122.2 342.97c-4.68 1.921-10.365 3.674-17.997 5.099-32.163 6.003-34.365-5.794-66.528 0.21-32.161 6.003-29.96 17.799-62.123 23.803-32.159 6.002-34.361-5.794-66.522 0.209s-29.96 17.799-62.121 23.803c-32.163 6.003-34.365-5.793-66.526 0.209-32.161 6.004-29.959 17.8-62.121 23.803-20.68 3.859-30.229-2.121-42.464-3.6-0.01 0.031-0.021 0.061-0.032 0.092 2.069-6.333 3.656-12.855 4.732-19.514 8.565 2.087 18.278 4.445 33.758 1.556 16.778-3.132 24.705-7.841 32.369-12.395 7.39-4.39 14.368-8.536 29.751-11.407s23.388-1.521 31.864-0.094c8.792 1.482 17.882 3.016 34.662-0.117 16.779-3.131 24.704-7.84 32.369-12.394 7.391-4.391 14.369-8.536 29.752-11.408 15.383-2.871 23.388-1.521 31.864-0.093 8.79 1.482 17.88 3.016 34.658-0.116 16.781-3.132 24.706-7.841 32.371-12.395 7.391-4.391 14.369-8.536 29.752-11.408 15.383-2.871 23.39-1.522 31.866-0.093 8.79 1.482 17.882 3.015 34.662-0.117 7.532-1.406 13.272-3.131 18.013-5.016l-0.749-4.016c-4.681 1.922-10.365 3.674-17.997 5.1-32.163 6.003-34.365-5.793-66.528 0.209-32.162 6.004-29.96 17.8-62.123 23.803-32.159 6.003-34.361-5.793-66.522 0.209-32.161 6.004-29.96 17.8-62.121 23.803-32.163 6.004-34.365-5.793-66.526 0.21s-29.96 17.8-62.121 23.802c-14.85 2.771-23.959 0.469-32.445-1.598-3e-3 0.021-7e-3 0.042-9e-3 0.063 0.858-6.584 1.217-13.289 1.041-20.068 0 0.012 1e-3 0.025 1e-3 0.037 7.147 1.453 15.596 2.305 27.405 0.101 16.778-3.132 24.705-7.841 32.369-12.394 7.391-4.391 14.369-8.537 29.752-11.408s23.388-1.521 31.864-0.093c8.792 1.481 17.882 3.015 34.662-0.118 16.778-3.131 24.703-7.84 32.369-12.394 7.391-4.391 14.369-8.536 29.752-11.407 15.383-2.872 23.388-1.522 31.863-0.094 8.791 1.482 17.881 3.016 34.659-0.116 16.78-3.132 24.705-7.841 32.371-12.395 7.391-4.39 14.369-8.536 29.752-11.407s23.39-1.522 31.865-0.094c8.791 1.482 17.883 3.016 34.663-0.117 7.532-1.406 13.271-3.131 18.013-5.016l-0.75-4.016c-4.68 1.922-10.365 3.675-17.997 5.1-32.163 6.003-34.364-5.793-66.528 0.21-32.161 6.003-29.959 17.8-62.122 23.802-32.16 6.004-34.361-5.793-66.523 0.21-32.161 6.003-29.959 17.799-62.12 23.802-32.164 6.004-34.365-5.793-66.527 0.21-32.161 6.003-29.959 17.8-62.12 23.802-11.658 2.177-19.777 1.225-26.837-0.285-0.315-5.481-0.98-11.004-2.015-16.543-0.28-1.504-0.596-2.993-0.925-4.475 4e-3 0.019 9e-3 0.036 0.013 0.055 6.799 1.246 14.842 1.82 25.757-0.217 16.778-3.132 24.705-7.842 32.369-12.395 7.39-4.391 14.369-8.537 29.752-11.408s23.387-1.521 31.863-0.092c8.792 1.481 17.883 3.014 34.663-0.117 16.778-3.133 24.703-7.842 32.369-12.395 7.39-4.391 14.369-8.537 29.752-11.408s23.387-1.521 31.863-0.093c8.791 1.482 17.881 3.015 34.659-0.116 16.78-3.133 24.705-7.842 32.371-12.395 7.39-4.391 14.369-8.537 29.752-11.408s23.389-1.521 31.865-0.093c8.79 1.481 17.882 3.015 34.663-0.118 7.531-1.405 13.271-3.131 18.012-5.015l-0.749-4.017c-4.68 1.922-10.365 3.676-17.997 5.1-32.163 6.004-34.365-5.793-66.528 0.211-32.161 6.002-29.96 17.799-62.123 23.803-32.159 6.002-34.361-5.795-66.522 0.209-32.161 6.002-29.959 17.799-62.121 23.802-32.163 6.003-34.365-5.793-66.526 0.21s-29.959 17.799-62.121 23.802c-11.228 2.096-19.17 1.288-26.047-0.122l3e-3 0.012c-1.973-7.664-4.6-15.009-7.814-21.984 7.672 1.742 16.668 3.09 29.852 0.629 16.779-3.132 24.706-7.841 32.369-12.395 7.391-4.391 14.369-8.537 29.752-11.408s23.388-1.521 31.864-0.092c8.792 1.481 17.882 3.014 34.662-0.117 16.779-3.133 24.704-7.841 32.369-12.395 7.391-4.391 14.369-8.537 29.752-11.408s23.388-1.521 31.864-0.092c8.79 1.481 17.88 3.015 34.658-0.117 16.781-3.133 24.706-7.841 32.371-12.395 7.391-4.391 14.369-8.537 29.752-11.408s23.39-1.521 31.866-0.093c8.79 1.481 17.882 3.015 34.662-0.117 7.532-1.406 13.272-3.131 18.013-5.015l-0.749-4.017c-4.681 1.921-10.365 3.675-17.997 5.099-32.164 6.004-34.365-5.793-66.528 0.211-32.161 6.002-29.96 17.799-62.123 23.803-32.159 6.002-34.361-5.795-66.522 0.209-32.162 6.002-29.96 17.799-62.121 23.802-32.163 6.003-34.365-5.793-66.526 0.21s-29.96 17.799-62.121 23.803c-14.227 2.654-23.186 0.652-31.375-1.338l9e-3 0.018c-4.331-8.489-9.544-16.385-15.501-23.594 3.029 0.422 5.956 1.123 9.063 1.882 8.574 2.091 18.293 4.46 33.797 1.565 16.779-3.131 24.705-7.84 32.369-12.394 7.391-4.391 14.369-8.537 29.752-11.408s23.388-1.521 31.864-0.093c8.792 1.482 17.882 3.016 34.662-0.117 16.778-3.131 24.704-7.84 32.369-12.395 7.391-4.391 14.369-8.536 29.752-11.407 15.383-2.872 23.388-1.522 31.864-0.093 8.79 1.482 17.88 3.016 34.658-0.117 16.78-3.131 24.705-7.84 32.371-12.394 7.391-4.391 14.369-8.537 29.752-11.408 15.383-2.872 23.39-1.522 31.865-0.093 8.791 1.482 17.883 3.015 34.663-0.117 7.532-1.406 13.272-3.131 18.013-5.015l-0.75-4.016c-4.68 1.921-10.365 3.675-17.996 5.099-32.164 6.003-34.365-5.793-66.529 0.21-32.161 6.003-29.959 17.798-62.122 23.802-32.16 6.002-34.361-5.793-66.522 0.209-32.162 6.004-29.96 17.799-62.121 23.803-32.164 6.003-34.365-5.793-66.526 0.209-32.162 6.004-29.96 17.8-62.121 23.803-22.567 4.213-31.882-3.291-45.894-3.877l4e-3 4e-3c-29.308-32.423-74.272-49.31-120.38-40.703-70.578 13.173-117.11 81.067-103.94 151.65s81.068 117.11 151.65 103.94c46.99-8.771 83.315-41.803 98.464-83.73 3.643 0.363 7.068 1.178 10.745 2.075 8.574 2.091 18.293 4.46 33.797 1.565 16.778-3.131 24.705-7.841 32.369-12.395 7.39-4.391 14.369-8.536 29.752-11.407 15.383-2.872 23.387-1.522 31.863-0.093 8.792 1.482 17.882 3.015 34.663-0.117 16.778-3.132 24.703-7.841 32.369-12.395 7.39-4.391 14.369-8.537 29.752-11.408s23.387-1.521 31.863-0.092c8.79 1.482 17.88 3.015 34.659-0.117 16.78-3.132 24.705-7.841 32.371-12.395 7.39-4.391 14.369-8.537 29.752-11.408s23.389-1.521 31.865-0.092c8.79 1.481 17.882 3.014 34.663-0.118 7.531-1.405 13.271-3.131 18.013-5.015l-1.6-3.87zm-466.16 104.59c-19.028 27.762-47.727 46.451-80.812 52.625-33.084 6.176-66.593-0.902-94.354-19.93s-46.45-47.728-52.625-80.813c-6.175-33.084 0.903-66.593 19.931-94.354 19.027-27.761 47.727-46.45 80.811-52.625 33.084-6.176 66.593 0.902 94.354 19.931 27.761 19.027 46.449 47.728 52.625 80.812 6.17 33.1-0.91 66.6-19.94 94.36zm-187.56-83.48l157.47-29.392-0.366-1.967-157.47 29.393 0.37 1.97zm10.48 56.15l157.47-29.393-0.367-1.966-157.47 29.393 0.37 1.97zm137.74-69.87l-23.794 4.441 1.167 6.255 7.983-1.49 3.561 19.077 7.828-1.461-3.562-19.077 7.984-1.49-1.17-6.26zm-39.26 18.37c0.41-1.131 0.482-2.4 0.221-3.805-0.302-1.613-0.948-2.908-1.941-3.885-0.992-0.977-2.167-1.553-3.523-1.729-1.355-0.176-3.244-0.038-5.663 0.414l-13.046 2.435 4.729 25.332 7.862-1.468-1.919-10.282 0.69-0.129c0.714-0.133 1.391-0.057 2.028 0.23 0.471 0.222 1.064 0.785 1.781 1.688l5.629 6.961 8.845-1.651-5.161-6.633c-0.253-0.334-0.716-0.791-1.391-1.369-0.674-0.578-1.173-0.944-1.5-1.098-0.484-0.231-1.221-0.417-2.212-0.554 1.115-0.482 1.969-0.988 2.563-1.515 0.92-0.84 1.59-1.82 2-2.95zm-7.74-0.16c-0.248 0.487-0.623 0.832-1.121 1.032-0.982 0.422-1.652 0.666-2.01 0.733l-3.3 0.616-0.962-5.149 3.439-0.642c1.428-0.267 2.442-0.229 3.043 0.112 0.6 0.341 0.976 0.92 1.129 1.738 0.1 0.55 0.03 1.07-0.22 1.56zm-89.74 15.36c-0.465-2.488-1.528-4.275-3.191-5.359-1.662-1.084-3.911-1.362-6.744-0.833l-13.012 2.429 4.729 25.332 7.862-1.467-1.755-9.4 4.285-0.8c3.156-0.589 5.369-1.747 6.639-3.474 1.26-1.73 1.66-3.88 1.18-6.43zm-8.12 3.83c-0.513 0.638-1.523 1.098-3.032 1.379l-1.918 0.358-1.055-5.65 2.229-0.416c1.463-0.273 2.511-0.183 3.144 0.271s1.024 1.079 1.172 1.874c0.16 0.82-0.02 1.55-0.54 2.19zm145.84-37.58l12.615 12.88 1.98 10.61 7.845-1.464-1.98-10.61 7.102-16.561-8.648 1.614-3.519 9.5-6.699-7.593-8.69 1.62zm-36.46 6.8l4.729 25.332 7.845-1.464-4.729-25.332-7.85 1.46zm-58.2 37.08l-4.729-25.332-7.845 1.464 4.729 25.332 7.85-1.46zm10.75-2.97c2.042 0.56 4.491 0.574 7.349 0.041 2.81-0.524 5.06-1.49 6.747-2.895 1.686-1.405 2.85-3.149 3.494-5.23 0.642-2.081 0.687-4.602 0.134-7.563-0.761-4.078-2.493-7.036-5.197-8.874-2.703-1.838-6.163-2.363-10.379-1.577-4.112 0.768-7.105 2.518-8.979 5.252s-2.425 6.168-1.653 10.304c0.553 2.96 1.595 5.317 3.126 7.07 1.53 1.75 3.32 2.9 5.36 3.47zm-0.25-17.79c0.748-1.296 1.91-2.091 3.488-2.386 1.647-0.308 3.055-1e-3 4.223 0.92 1.166 0.92 1.973 2.573 2.418 4.958 0.528 2.834 0.435 4.884-0.283 6.151-0.717 1.266-1.917 2.057-3.598 2.37-1.637 0.306-3.034-0.012-4.192-0.952-1.159-0.94-1.978-2.689-2.455-5.246-0.48-2.57-0.35-4.51 0.4-5.81zm-26.86 8.64c0.409-1.132 0.482-2.4 0.22-3.805-0.301-1.613-0.948-2.908-1.94-3.885-0.993-0.977-2.168-1.553-3.524-1.729-1.355-0.177-3.243-0.039-5.663 0.413l-13.046 2.435 4.729 25.332 7.862-1.467-1.919-10.282 0.691-0.129c0.714-0.133 1.39-0.057 2.027 0.23 0.471 0.222 1.064 0.785 1.781 1.688l5.629 6.96 8.845-1.651-5.16-6.633c-0.253-0.334-0.717-0.791-1.391-1.369s-1.175-0.944-1.5-1.098c-0.484-0.231-1.222-0.417-2.212-0.554 1.114-0.482 1.968-0.987 2.562-1.515 0.93-0.85 1.6-1.83 2-2.96zm-7.74-0.16c-0.249 0.487-0.623 0.832-1.122 1.032-0.982 0.422-1.652 0.666-2.009 0.733l-3.301 0.616-0.961-5.149 3.438-0.642c1.429-0.267 2.442-0.229 3.043 0.112 0.6 0.34 0.977 0.92 1.129 1.738 0.1 0.56 0.03 1.08-0.22 1.56zm121.09-95.74l-2.853-2.09-14.07 19.204 2.852 2.09 14.07-19.2zm0.92 33.21l2.423-2.391-8.174-8.284 14.525-14.329-2.483-2.518-16.947 16.719 10.66 10.8zm-35.99-26.13l4.14-4.081 8.662 4.205-0.689 5.755 3.301 1.603 2.688-25.158-3.271-1.587-18.132 17.662 3.3 1.61zm12.66-12.42c0.289-0.291 0.607-0.625 0.957-1.003s0.664-0.727 0.941-1.047c-0.099 0.407-0.185 0.869-0.258 1.388-0.074 0.518-0.132 0.976-0.177 1.372l-0.938 8.55-6.707-3.255 6.19-6zm-126.06 63.18l-19.76-15.573-1.25 3.555 13.888 10.551c0.27 0.201 0.604 0.445 1.001 0.731 0.397 0.287 0.838 0.579 1.319 0.878-0.563-0.069-1.089-0.116-1.578-0.142s-0.902-0.045-1.238-0.058l-17.457-0.403-1.262 3.587 25.163 0.21 1.18-3.34zm31.16-40.82l-1.137-5.7 8.271-4.931 4.432 3.736 3.15-1.879-19.549-16.061-3.123 1.862 4.805 24.852 3.16-1.88zm-3.74-18.75c-0.124-0.499-0.244-0.953-0.358-1.362 0.286 0.307 0.625 0.633 1.019 0.979 0.393 0.346 0.742 0.646 1.049 0.901l6.63 5.48-6.402 3.817-1.625-8.463c-0.1-0.41-0.2-0.86-0.32-1.36zm25.39 7.89l-8.282-22.319-3.315 1.23 8.283 22.32 3.31-1.23zm-46.23 37.93l-20.741-11.685-1.736 3.081 20.742 11.686 1.74-3.08zm3.77-6.26l-2.972-4.996 6.155-7.405 5.423 2.047 2.346-2.821-23.784-8.631-2.324 2.796 12.811 21.831 2.33-2.82zm-9.03-15.26c-0.213-0.35-0.46-0.739-0.744-1.169-0.282-0.43-0.547-0.818-0.791-1.165 0.372 0.194 0.8 0.388 1.286 0.583 0.485 0.196 0.915 0.362 1.289 0.501l8.077 2.957-4.766 5.732-4.36-7.44zm90.8-33.99l0.529-3.531 0.778 3.765 3.323 14.238 8.001-12.112 2.018-3.366-0.726 3.496-2.29 12.813 3.48 0.622 4.188-23.435-3.514-0.628-8.873 13.508-0.977 1.596-0.331-1.83-3.677-15.751-3.515-0.628-4.188 23.435 3.481 0.622 2.29-12.82zm-30.89 14.99l-1.736-9.572 5.097-0.925 6.344 8.736 3.985-0.724-6.609-8.991c0.85-0.402 1.554-0.892 2.112-1.472 0.559-0.579 0.987-1.208 1.286-1.887s0.484-1.378 0.556-2.1c0.071-0.723 0.046-1.42-0.076-2.096-0.161-0.882-0.438-1.714-0.833-2.498-0.396-0.783-0.945-1.445-1.651-1.987-0.706-0.541-1.579-0.92-2.619-1.136s-2.279-0.193-3.717 0.067l-9.866 1.791 4.25 23.424 3.48-0.63zm2.83-21.25c0.763-0.138 1.413-0.144 1.954-0.017 0.54 0.127 0.989 0.338 1.347 0.633 0.356 0.296 0.632 0.645 0.822 1.049 0.192 0.404 0.324 0.808 0.397 1.21 0.083 0.458 0.098 0.91 0.044 1.359-0.054 0.448-0.202 0.869-0.446 1.262-0.243 0.393-0.592 0.734-1.046 1.025-0.453 0.291-1.045 0.501-1.774 0.634l-6.468 1.174-1.299-7.154 6.48-1.17zm91.84 149.17l7.799 4.97-3.239 5.083c-0.505 0.793-0.874 1.561-1.105 2.307-0.232 0.744-0.354 1.457-0.367 2.137-0.015 0.682 0.066 1.326 0.242 1.936 0.175 0.611 0.418 1.173 0.728 1.686 0.31 0.512 0.674 0.977 1.091 1.394s0.858 0.773 1.325 1.071c0.756 0.481 1.573 0.842 2.452 1.08 0.878 0.237 1.771 0.282 2.681 0.133 0.908-0.148 1.812-0.531 2.709-1.147s1.739-1.54 2.524-2.772l5.139-8.063-20.077-12.793-1.9 2.97zm17.2 10.97l-3.345 5.25c-0.422 0.662-0.877 1.145-1.363 1.444s-0.971 0.474-1.453 0.521c-0.483 0.047-0.949 0-1.396-0.142-0.448-0.142-0.85-0.325-1.204-0.55-0.383-0.244-0.73-0.549-1.044-0.912-0.313-0.363-0.541-0.777-0.684-1.243-0.144-0.466-0.178-0.972-0.103-1.522 0.074-0.549 0.311-1.137 0.709-1.762l3.346-5.25 6.51 4.16zm-26.29 2.31l2.536 5.229-6.763 6.854-5.229-2.5-2.576 2.611 22.964 10.621 2.554-2.588-10.909-22.842-2.57 2.62zm7.7 15.97c0.182 0.367 0.396 0.776 0.642 1.229 0.246 0.451 0.476 0.861 0.689 1.229-0.354-0.225-0.764-0.455-1.231-0.691-0.467-0.234-0.882-0.438-1.243-0.607l-7.796-3.633 5.235-5.307 3.71 7.78zm-25.36-0.22l5.005 8.343-4.442 2.664-9.019-5.934-3.474 2.083 9.357 6.08c-0.652 0.675-1.139 1.382-1.456 2.122-0.318 0.739-0.497 1.479-0.538 2.219-0.039 0.74 0.035 1.461 0.223 2.162 0.188 0.699 0.458 1.344 0.812 1.933 0.461 0.769 1.015 1.45 1.66 2.044 0.646 0.592 1.396 1.018 2.247 1.275s1.802 0.303 2.852 0.138c1.049-0.165 2.201-0.623 3.453-1.375l8.599-5.157-12.246-20.416-3.03 1.84zm10.5 17.49l-5.639 3.381c-0.663 0.398-1.271 0.635-1.822 0.707-0.55 0.071-1.044 0.032-1.482-0.117-0.438-0.15-0.818-0.381-1.141-0.691-0.321-0.31-0.588-0.641-0.798-0.992-0.239-0.398-0.413-0.816-0.521-1.256-0.108-0.438-0.117-0.885-0.028-1.338 0.09-0.453 0.295-0.896 0.616-1.327 0.321-0.433 0.801-0.839 1.437-1.22l5.639-3.383 3.73 6.24zm-35.94-0.04l-9.428 1.958-2.967-4.98-3.592 0.746 13.227 21.568 3.561-0.739 3.58-25.058-3.593 0.746-0.79 5.75zm-1.65 11.81c-0.052 0.406-0.101 0.866-0.146 1.378-0.047 0.513-0.081 0.98-0.107 1.404-0.169-0.383-0.384-0.802-0.642-1.257-0.259-0.456-0.492-0.854-0.698-1.194l-4.476-7.346 7.299-1.516-1.22 8.54zm-24.46-14.38l-8.332 23.739 3.769 0.031 5.483-16.557c0.103-0.32 0.225-0.715 0.367-1.184 0.142-0.471 0.276-0.98 0.402-1.533 0.117 0.555 0.243 1.067 0.377 1.539 0.136 0.471 0.25 0.867 0.348 1.189l5.273 16.646 3.802 0.031-7.953-23.873-3.54-0.04zm-19.51 21.62l3.477 0.65 4.377-23.4-3.476-0.65-4.38 23.4zm-4.57-24.03c-0.503-0.822-1.161-1.575-1.975-2.258-0.813-0.684-1.813-1.258-2.997-1.725-1.185-0.466-2.307-0.727-3.367-0.781s-2.056 0.047-2.984 0.307c-0.929 0.259-1.79 0.657-2.585 1.195-0.794 0.537-1.519 1.168-2.172 1.891-0.654 0.725-1.234 1.52-1.741 2.385s-0.941 1.756-1.302 2.672c-0.357 0.906-0.645 1.848-0.863 2.827s-0.335 1.955-0.351 2.931c-0.016 0.975 0.085 1.93 0.299 2.865 0.215 0.935 0.574 1.814 1.077 2.637 0.502 0.822 1.161 1.574 1.975 2.258 0.813 0.683 1.813 1.258 2.996 1.723 1.185 0.467 2.307 0.729 3.368 0.783s2.055-0.047 2.983-0.307c0.93-0.26 1.791-0.656 2.585-1.195 0.794-0.537 1.519-1.168 2.173-1.893 0.653-0.723 1.236-1.517 1.748-2.379 0.513-0.863 0.947-1.748 1.304-2.654 0.36-0.917 0.647-1.865 0.861-2.846s0.328-1.959 0.343-2.934c0.016-0.976-0.084-1.931-0.299-2.865-0.22-0.95-0.58-1.82-1.08-2.65zm-2.41 6.89c-0.171 1.068-0.447 2.086-0.828 3.055-0.235 0.597-0.525 1.199-0.872 1.807-0.346 0.606-0.742 1.176-1.189 1.708s-0.941 1.009-1.483 1.433c-0.541 0.422-1.124 0.75-1.75 0.979-0.625 0.229-1.29 0.346-1.992 0.35-0.703 2e-3 -1.44-0.148-2.213-0.453-0.772-0.304-1.417-0.691-1.934-1.162-0.516-0.471-0.926-0.994-1.228-1.572-0.302-0.576-0.51-1.197-0.624-1.859-0.113-0.664-0.152-1.342-0.117-2.036 0.035-0.693 0.138-1.392 0.306-2.091 0.169-0.701 0.379-1.371 0.631-2.01 0.239-0.607 0.531-1.215 0.878-1.822 0.346-0.607 0.743-1.177 1.189-1.708 0.447-0.532 0.941-1.009 1.482-1.433 0.542-0.423 1.123-0.75 1.743-0.982 0.621-0.23 1.282-0.348 1.985-0.352 0.702-2e-3 1.44 0.148 2.212 0.453 1.154 0.453 2.029 1.086 2.625 1.898 0.597 0.811 0.984 1.713 1.164 2.707 0.17 0.97 0.18 2 0.01 3.07zm-18.44-18.4l-9.637 12.963-0.97 1.473 0.277-1.987 1.376-19.104-2.678-1.99-14.203 19.105 2.838 2.109 9.498-12.777 0.99-1.498-0.303 2.051-1.419 18.742 2.864 2.129 14.203-19.105-2.84-2.1z" fill="#9D9D9C"/>
</svg>