<?xml version="1.0" encoding="UTF-8"?>
<svg viewBox="0 0 550 400" xmlns="http://www.w3.org/2000/svg" xmlns:xlink="http://www.w3.org/1999/xlink">
 <defs>
  <filter id="f" x="-.26728" y="-.1685" width="1.5346" height="1.337">
   <feGaussianBlur stdDeviation="39.14945"/>
  </filter>
  <filter id="o" x="-.01958" y="-.14339" width="1.0392" height="1.2868">
   <feGaussianBlur stdDeviation="18.58874"/>
  </filter>
  <filter id="n" x="-.1031" y="-.14434" width="1.2062" height="1.2887">
   <feGaussianBlur stdDeviation="6.07542"/>
  </filter>
  <filter id="m" x="-.08392" y="-.12443" width="1.1678" height="1.2489">
   <feGaussianBlur stdDeviation="6.07542"/>
  </filter>
  <filter id="l" x="-.10614" y="-.11277" width="1.2123" height="1.2255">
   <feGaussianBlur stdDeviation="6.07542"/>
  </filter>
  <filter id="k" x="-.09496" y="-.10935" width="1.1899" height="1.2187">
   <feGaussianBlur stdDeviation="6.07542"/>
  </filter>
  <filter id="g" x="-.20058" y="-.09772" width="1.4012" height="1.1954">
   <feGaussianBlur stdDeviation="12.83216"/>
  </filter>
  <filter id="h" x="-.15879" y="-.07736" width="1.3176" height="1.1547">
   <feGaussianBlur stdDeviation="10.15879"/>
  </filter>
  <filter id="i" x="-.31758" y="-.15472" width="1.6352" height="1.3094">
   <feGaussianBlur stdDeviation="20.31758"/>
  </filter>
  <filter id="j" x="-.35937" y="-.17508" width="1.7187" height="1.3502">
   <feGaussianBlur stdDeviation="22.99094"/>
  </filter>
  <linearGradient id="c">
   <stop stop-color="#ffff3e" offset="0"/>
   <stop stop-color="#f60" offset="1"/>
  </linearGradient>
  <radialGradient id="a" cx="-1676.9" cy="1159.5" r="261.12" gradientTransform="matrix(-1.4855 -.60349 .48257 -1.1879 -4727.4 1510.7)" gradientUnits="userSpaceOnUse">
   <stop stop-color="#f90" offset="0"/>
   <stop stop-color="#b50000" offset="1"/>
  </radialGradient>
  <radialGradient id="b" cx="-1535.4" cy="1194.8" r="47.526" gradientTransform="matrix(1.4453 1.3173e-6 -9.5015e-7 1.0425 683.74 -51.118)" gradientUnits="userSpaceOnUse">
   <stop stop-color="#b50000" offset="0"/>
   <stop stop-color="#f60" offset="1"/>
  </radialGradient>
  <radialGradient id="d" cx="-1745.5" cy="534.48" r="177.57" gradientTransform="matrix(-.2048 -1.8204 1.5704 -.17667 -2942.4 -2519.1)" gradientUnits="userSpaceOnUse" xlink:href="#c"/>
  <radialGradient id="e" cx="-1470.8" cy="1190.9" r="47.526" gradientTransform="matrix(-2.1255 .17003 -.08313 -1.0392 -4497.9 2678.1)" gradientUnits="userSpaceOnUse" xlink:href="#c"/>
 </defs>
 <g transform="matrix(.25006 0 0 .23989 531.1 -113.21)">
  <path transform="translate(0 702.36)" d="m-1874.8 204.54h351.53v557.6h-351.53z" fill="url(#d)" filter="url(#f)" stroke="#936114" stroke-linecap="round" stroke-width="3.6"/>
  <g transform="matrix(.94571 0 0 1.0846 -106.38 -130.64)" fill="url(#a)" stroke="#484528">
   <g transform="translate(-892.97 -20.203)" fill="url(#a)" stroke="#484528">
    <path d="m-1058.6 927.1 40.406 44.447 424.26 8.0812 36.365-52.528c-139.91-27.702-299.29-53.433-501.04 0z"/>
    <path d="m-1062.7 983.67 40.406 44.447 424.26 8.0812 36.366-52.528c-140.5-26.511-318-16.025-501.04 0z"/>
    <path d="m-1058.6 1032.2 40.406 44.447 424.26 8.0812 36.366-52.528c-140.5-26.511-318-16.025-501.04 0z"/>
    <path d="m-1062.7 1080.6 40.406 44.447 424.26 8.0812 36.366-52.528c-140.5-26.511-318-16.026-501.04 0z"/>
    <path d="m-1054.6 1125.1 40.406 44.447 424.26 8.0812 36.366-52.528c-140.5-26.511-318-16.026-501.04 0z"/>
    <path d="m-1046.5 1185.7 40.406 44.447 424.26 8.0812 36.366-52.528c-140.5-26.511-318-16.026-501.04 0z"/>
    <path d="m-1054.6 1238.2 40.406 44.447 424.26 8.0812 36.366-52.528c-140.5-26.511-318-16.026-501.04 0z"/>
    <path d="m-1066.7 1290.8 40.406 44.447 424.26 8.0812 36.366-52.528c-140.5-26.511-318-16.026-501.04 0z"/>
    <path d="m-1046.5 1339.2 40.406 44.447 424.26 8.0812 36.365-52.528c-140.5-26.511-318-16.026-501.04 0z"/>
    <path d="m-1050.6 1387.7 40.406 44.447 424.26 8.0812 36.365-52.528c-140.5-26.511-318-16.026-501.04 0z"/>
    <path d="m-1054.6 1444.3 40.406 44.447 424.26 8.0812 36.365-52.528c-140.5-26.511-318-16.026-501.04 0z"/>
    <path d="m-1046.5 1488.7 40.406 44.447c166.4 60.98 287.18 15.51 424.26 8.0812l36.365-52.528c-140.5-26.511-318-16.026-501.04 0z"/>
   </g>
  </g>
  <g fill="#dc0000" stroke="#830500" stroke-width="3.6">
   <path transform="translate(0 702.36)" d="m-1499.1 168.17 40.406 44.447 424.26 8.0812 36.365-52.528c-139.91-27.702-299.29-53.433-501.04 0z"/>
   <path d="m-1503.1 927.1 40.406 44.447 424.26 8.0812 36.366-52.528c-140.5-26.511-318-16.025-501.04 0z"/>
   <path d="m-1499.1 975.59 40.406 44.447 424.26 8.0812 36.366-52.528c-140.5-26.511-318-16.025-501.04 0z"/>
   <path d="m-1503.1 1024.1 40.406 44.447 424.26 8.0812 36.366-52.528c-140.5-26.511-318-16.026-501.04 0z"/>
   <path d="m-1495 1068.5 40.406 44.447 424.26 8.0812 36.366-52.528c-140.5-26.511-318-16.026-501.04 0z"/>
   <path d="m-1486.9 1129.1 40.406 44.447 424.26 8.0812 36.366-52.528c-140.5-26.511-318-16.026-501.04 0z"/>
   <path d="m-1495 1181.7 40.406 44.447 424.26 8.0812 36.366-52.528c-140.5-26.511-318-16.026-501.04 0z"/>
   <path d="m-1507.1 1234.2 40.406 44.447 424.26 8.0812 36.366-52.528c-140.5-26.511-318-16.026-501.04 0z"/>
   <path d="m-1486.9 1282.7 40.406 44.447 424.26 8.0812 36.365-52.528c-140.5-26.511-318-16.026-501.04 0z"/>
   <path d="m-1491 1331.2 40.406 44.447 424.26 8.0812 36.365-52.528c-140.5-26.511-318-16.026-501.04 0z"/>
   <path d="m-1495 1387.7 40.406 44.447 424.26 8.0812 36.365-52.528c-140.5-26.511-318-16.026-501.04 0z"/>
   <path d="m-1486.9 1432.2 40.406 44.447c166.4 60.98 287.18 15.51 424.26 8.0812l36.365-52.528c-140.5-26.511-318-16.026-501.04 0z"/>
  </g>
  <g stroke="#936114">
   <g fill="#f90" stroke="#936114">
    <path d="m-1058.6 927.1 40.406 44.447 424.26 8.0812 36.365-52.528c-139.91-27.702-299.29-53.433-501.04 0z"/>
    <path d="m-1062.7 983.67 40.406 44.447 424.26 8.0812 36.366-52.528c-140.5-26.511-318-16.025-501.04 0z"/>
    <path d="m-1058.6 1032.2 40.406 44.447 424.26 8.0812 36.366-52.528c-140.5-26.511-318-16.025-501.04 0z"/>
    <path d="m-1062.7 1080.6 40.406 44.447 424.26 8.0812 36.366-52.528c-140.5-26.511-318-16.026-501.04 0z"/>
    <path d="m-1054.6 1125.1 40.406 44.447 424.26 8.0812 36.366-52.528c-140.5-26.511-318-16.026-501.04 0z"/>
    <path d="m-1046.5 1185.7 40.406 44.447 424.26 8.0812 36.366-52.528c-140.5-26.511-318-16.026-501.04 0z"/>
    <path d="m-1054.6 1238.2 40.406 44.447 424.26 8.0812 36.366-52.528c-140.5-26.511-318-16.026-501.04 0z"/>
    <path d="m-1066.7 1290.8 40.406 44.447 424.26 8.0812 36.366-52.528c-140.5-26.511-318-16.026-501.04 0z"/>
    <path d="m-1046.5 1339.2 40.406 44.447 424.26 8.0812 36.365-52.528c-140.5-26.511-318-16.026-501.04 0z"/>
    <path d="m-1050.6 1387.7 40.406 44.447 424.26 8.0812 36.365-52.528c-140.5-26.511-318-16.026-501.04 0z"/>
    <path d="m-1054.6 1444.3 40.406 44.447 424.26 8.0812 36.365-52.528c-140.5-26.511-318-16.026-501.04 0z"/>
    <path d="m-1046.5 1488.7 40.406 44.447c166.4 60.98 287.18 15.51 424.26 8.0812l36.365-52.528c-140.5-26.511-318-16.026-501.04 0z"/>
   </g>
  </g>
  <g transform="translate(412.14 -92.934)" fill="#b50000" stroke="#000">
   <path d="m-1058.6 927.1 40.406 44.447 424.26 8.0812 36.365-52.528c-139.91-27.702-299.29-53.433-501.04 0z"/>
   <path d="m-1062.7 983.67 40.406 44.447 424.26 8.0812 36.366-52.528c-140.5-26.511-318-16.025-501.04 0z"/>
   <path d="m-1058.6 1032.2 40.406 44.447 424.26 8.0812 36.366-52.528c-140.5-26.511-318-16.025-501.04 0z"/>
   <path d="m-1062.7 1080.6 40.406 44.447 424.26 8.0812 36.366-52.528c-140.5-26.511-318-16.026-501.04 0z"/>
   <path d="m-1054.6 1125.1 40.406 44.447 424.26 8.0812 36.366-52.528c-140.5-26.511-318-16.026-501.04 0z"/>
   <path d="m-1046.5 1185.7 40.406 44.447 424.26 8.0812 36.366-52.528c-140.5-26.511-318-16.026-501.04 0z"/>
   <path d="m-1054.6 1238.2 40.406 44.447 424.26 8.0812 36.366-52.528c-140.5-26.511-318-16.026-501.04 0z"/>
   <path d="m-1066.7 1290.8 40.406 44.447 424.26 8.0812 36.366-52.528c-140.5-26.511-318-16.026-501.04 0z"/>
   <path d="m-1046.5 1339.2 40.406 44.447 424.26 8.0812 36.365-52.528c-140.5-26.511-318-16.026-501.04 0z"/>
   <path d="m-1050.6 1387.7 40.406 44.447 424.26 8.0812 36.365-52.528c-140.5-26.511-318-16.026-501.04 0z"/>
   <path d="m-1054.6 1444.3 40.406 44.447 424.26 8.0812 36.365-52.528c-140.5-26.511-318-16.026-501.04 0z"/>
   <path d="m-1046.5 1488.7 40.406 44.447c166.4 60.98 287.18 15.51 424.26 8.0812l36.365-52.528c-140.5-26.511-318-16.026-501.04 0z"/>
  </g>
  <path transform="translate(0 702.36)" d="m-2072.8-45.98 355.57 60.609h460.63l440.43 40.406 424.26-72.731 432.35-161.62" fill="none" stroke="#b41e1e" stroke-width="13.2"/>
  <path transform="translate(0 702.36)" d="m-1798.1 111.6 76.772-101.02 64.65 96.975" fill="none" stroke="#8b0808" stroke-width="4.2"/>
  <path transform="translate(0 702.36)" d="m-1349.6 131.81 80.812-113.14 92.934 117.18" fill="none" stroke="#8b0808" stroke-width="4.2"/>
  <path transform="translate(0 702.36)" d="m-909.14 192.42 76.772-129.3 60.609 129.3" fill="none" stroke="#8b0808" stroke-width="4.2"/>
  <path transform="translate(0 702.36)" d="m-468.71 95.442 68.69-113.14 84.853 133.34" fill="none" stroke="#8b0808" stroke-width="4.2"/>
  <path d="m-1753.6 2111 24.244-355.57 8.0812 367.7" fill="none" stroke="#de2e14" stroke-width="10.2"/>
  <path d="m-1726.5 2113.6-7.3635-358.36 34.011 346.37" fill="none" stroke="#de2e14" stroke-width="9.223"/>
  <path d="m-1737.5 2122.8 16.072-356.04 16.522 367.41" fill="none" stroke="#de2e14" stroke-width="10.2"/>
  <path d="m-1710.4 2124.8-15.591-358.1 41.956 345.5" fill="none" stroke="#de2e14" stroke-width="9.223"/>
  <path transform="translate(-206.07 528.62)" d="m-1478.9 1202.6c0 24.547-18.995 44.447-42.426 44.447s-42.426-19.899-42.426-44.447 18.995-44.447 42.426-44.447 42.426 19.9 42.426 44.447z" fill="url(#b)" stroke="#de2e14" stroke-linecap="round" stroke-width="10.2"/>
  <path d="m-1729.4 1682.7-8.0813-133.34h16.162z" fill="#b50000" stroke="#c30909" stroke-width="6"/>
  <path d="m-1272.8 2066.6 24.244-355.57 8.0812 367.7" fill="none" stroke="#f47f17" stroke-width="10.2"/>
  <path d="m-1245.7 2069.2-7.3635-358.36 34.011 346.37" fill="none" stroke="#f47f17" stroke-width="9.223"/>
  <path d="m-1256.7 2078.3 16.072-356.04 16.522 367.41" fill="none" stroke="#f47f17" stroke-width="10.2"/>
  <path d="m-1229.5 2080.3-15.591-358.1 41.956 345.5" fill="none" stroke="#f47f17" stroke-width="9.223"/>
  <path transform="translate(274.76 484.17)" d="m-1478.9 1202.6c0 24.547-18.995 44.447-42.426 44.447s-42.426-19.899-42.426-44.447 18.995-44.447 42.426-44.447 42.426 19.9 42.426 44.447z" fill="url(#b)" stroke="#f47f17" stroke-linecap="round" stroke-width="10.2"/>
  <path d="m-1248.5 1638.3-8.0813-133.34h16.162z" fill="#b50000" stroke="#f47f17" stroke-width="6"/>
  <path d="m-836.41 2098.9 24.244-355.57 8.0812 367.7" fill="none" stroke="#f4c217" stroke-width="10.2"/>
  <path d="m-809.3 2101.5-7.3635-358.36 34.011 346.37" fill="none" stroke="#f4c217" stroke-width="9.223"/>
  <path d="m-820.31 2110.7 16.072-356.04 16.522 367.41" fill="none" stroke="#f4c217" stroke-width="10.2"/>
  <path d="m-793.15 2112.6-15.591-358.1 41.956 345.5" fill="none" stroke="#f4c217" stroke-width="9.223"/>
  <path transform="translate(711.15 516.49)" d="m-1478.9 1202.6c0 24.547-18.995 44.447-42.426 44.447s-42.426-19.899-42.426-44.447 18.995-44.447 42.426-44.447 42.426 19.9 42.426 44.447z" fill="url(#e)" stroke="#f4c217" stroke-linecap="round" stroke-width="10.2"/>
  <path d="m-812.16 1670.6-8.0813-133.34h16.162z" fill="#b50000" stroke="#f4c217" stroke-width="6"/>
  <path d="m-387.9 2018.1 24.244-355.57 8.0812 367.7" fill="#b50000" stroke="#f42c17" stroke-width="10.2"/>
  <path d="m-360.8 2020.7-7.3635-358.36 34.011 346.37" fill="#b50000" stroke="#f42c17" stroke-width="9.223"/>
  <path d="m-371.8 2029.9 16.072-356.04 16.522 367.41" fill="#b50000" stroke="#f42c17" stroke-width="10.2"/>
  <path d="m-344.65 2031.8-15.591-358.1 41.956 345.5" fill="#b50000" stroke="#f42c17" stroke-width="9.223"/>
  <path transform="translate(1159.7 435.68)" d="m-1478.9 1202.6c0 24.547-18.995 44.447-42.426 44.447s-42.426-19.899-42.426-44.447 18.995-44.447 42.426-44.447 42.426 19.9 42.426 44.447z" fill="#b50000" stroke="#f42c17" stroke-linecap="round" stroke-width="10.2"/>
  <path d="m-363.65 1589.8-8.0813-133.34h16.162z" fill="#b50000" stroke="#f42c17" stroke-width="6"/>
  <path transform="translate(0 702.36)" d="m-2072.8-45.98 355.57 60.609h460.63l440.43 40.406 424.26-72.731 416.18-161.62" fill="none" filter="url(#o)" stroke="#e8cb11" stroke-width="13.2"/>
  <path transform="translate(0 702.36)" d="m-1798.1 111.6 76.772-101.02 64.65 96.975" fill="none" filter="url(#n)" stroke="#8b5208" stroke-width="7.7"/>
  <path transform="translate(0 702.36)" d="m-1349.6 131.81 80.812-113.14 92.934 117.18" fill="none" filter="url(#m)" stroke="#8b5208" stroke-width="7.7"/>
  <path transform="translate(0 702.36)" d="m-909.14 192.42 76.772-129.3 60.609 129.3" fill="none" filter="url(#l)" stroke="#8b5208" stroke-width="7.7"/>
  <path transform="translate(0 702.36)" d="m-468.71 95.442 68.69-113.14 84.853 133.34" fill="none" filter="url(#k)" stroke="#8b5208" stroke-width="7.7"/>
  <path transform="matrix(1.5834 0 0 1.1023 945.03 608.43)" d="m-1612.2 503.54c0 87.031-34.372 157.58-76.772 157.58s-76.772-70.553-76.772-157.58 34.372-157.58 76.772-157.58 76.772 70.553 76.772 157.58z" fill="#f90" filter="url(#g)" opacity=".20976"/>
  <path transform="matrix(1.5834 0 0 1.1023 1425.9 648.84)" d="m-1612.2 503.54c0 87.031-34.372 157.58-76.772 157.58s-76.772-70.553-76.772-157.58 34.372-157.58 76.772-157.58 76.772 70.553 76.772 157.58z" fill="#f90" filter="url(#h)" opacity=".20976"/>
  <path transform="matrix(1.5834 0 0 1.1023 1846.1 584.19)" d="m-1612.2 503.54c0 87.031-34.372 157.58-76.772 157.58s-76.772-70.553-76.772-157.58 34.372-157.58 76.772-157.58 76.772 70.553 76.772 157.58z" fill="#ffff3e" filter="url(#i)" opacity=".20976"/>
  <path transform="matrix(1.5834 0 0 1.1023 2254.2 592.27)" d="m-1612.2 503.54c0 87.031-34.372 157.58-76.772 157.58s-76.772-70.553-76.772-157.58 34.372-157.58 76.772-157.58 76.772 70.553 76.772 157.58z" fill="#ffff3e" filter="url(#j)" opacity=".20976"/>
 </g>
</svg>
