<?xml version="1.0" encoding="UTF-8"?>
<svg viewBox="0 0 64 64" xmlns="http://www.w3.org/2000/svg">
 <g transform="translate(-.17678 -8.8388)">
  <path d="m1.2513 22.799h60.8v34.745h-60.8z" fill="#e8cc84"/>
  <path d="m32.712 26.345v28.186" fill="#908c80" fill-rule="evenodd" stroke="#000" stroke-width=".22244"/>
  <path d="m34.833 35.999h24.037" fill="none" stroke="#000" stroke-width=".22244"/>
  <path d="m35.186 40.162h24.037" fill="none" stroke="#000" stroke-width=".22244"/>
  <path d="m35.186 44.172h24.037" fill="none" stroke="#000" stroke-width=".22244"/>
  <path d="m35.137 47.737h13.355" fill="none" stroke="#000" stroke-width=".1658"/>
  <path d="m46.452 50.853h14.586v2.6609h-14.586z" fill="none" stroke="#0e0101" stroke-linejoin="round" stroke-width=".12901"/>
  <path d="m48.804 50.761v2.7527" fill="none" stroke="#000" stroke-width=".12901"/>
  <path d="m51.114 50.761v2.7527" fill="none" stroke="#000" stroke-width=".12901"/>
  <path d="m53.712 50.761v2.7527" fill="none" stroke="#000" stroke-width=".12901"/>
  <path d="m56.31 50.761v2.7527" fill="none" stroke="#000" stroke-width=".12901"/>
  <path d="m58.908 50.761v2.7527" fill="none" stroke="#000" stroke-width=".12901"/>
  <path d="m52.46333,24.61285v.38073l.04944-.0045c.2627,0 .47649.25201.47649.56436s-.21379.56435-.47649.56435l-.04944-.0044v.60017l.04944-.0045c.2627,0 .47649.25203.47649.56434s-.21379.56439-.47649.56439l-.04944-.0044v.60018l.04944-.0046c.2627,0 .47649.25205.47649.56438s-.21379.56438-.47649.56438l-.04944-.0044v.6002l.04944-.0046c.2627,0 .47649.25205.47649.56439s-.21379.56438-.47649.56438l-.04944-.0044v.52398h.54355c-.0015-.0189-.0033-.03873-.0033-.05824 0-.31231.21373-.56439.47645-.56439s.47311.25208.47311.56439c0,.01951-.002.03933-.0035.05824h.63902c-.0017-.0189-.0036-.03873-.0036-.05824 0-.31231.21401-.56439.47667-.56439s.47303.25208.47303.56439c0,.01951-.0018.03933-.0036.05824h.41309c-.0015-.0189-.0035-.03873-.0035-.05824 0-.31231.21391-.56439.47656-.56439s.47303.25208.47303.56439c0,.01951-.0018.03933-.0034.05824h.41285c-.0015-.0189-.0033-.03873-.0033-.05824 0-.31231.21376-.56439.47645-.56439s.47311.25208.47311.56439c0,.01951-.002.03933-.0035.05824h.69191v-.46577l-.03891.0044c-.26266,0-.47648-.25185-.47648-.56438s.21382-.56873.47648-.56873l.03891.0044v-.59566l-.03891.0044c-.26266,0-.47648-.25186-.47648-.56439s.21382-.56873.47648-.56873l.03891.0043v-.59563l-.03891.0044c-.26266,0-.47648-.25186-.47648-.56439s.21382-.5687.47648-.5687l.03891.0043v-.59563l-.03891.0044c-.26266,0-.47648-.25186-.47648-.56437s.21382-.56871.47648-.56871l.03891.0044v-.43445h-.84726c.0036.03252.0076.06454.007.09859-.0046.33318-.20915.59677-.45539.59127s-.44232-.28046-.43777-.61373c.00033-.02622.0043-.05082.0071-.07613h-.47309c.0016.02247.0039.04411.0036.06729-.0046.33318-.20916.60115-.45539.59566s-.44233-.28039-.43777-.61366c.00029-.01635.0024-.03324.0035-.04929h-.46955c.0003.01223.0037.02341.0036.03588-.0047.33327-.20926.60126-.45543.59577s-.44247-.28049-.43774-.61376c2.4e-005-.0062.0032-.01159.0034-.01789h-.46599c-3.1e-005,.0029.00012.006 0,.009-.0046.3332-.20555.59671-.4518.59122-.2429-.0055-.43685-.27319-.43775-.60026h-.67428z" fill="#ff8080" stroke="#0e0101" stroke-linejoin="round" stroke-width=".12725"/>
  <path transform="matrix(.22211 0 0 .22277 -2.2836 7.3765)" d="m270.16 90.318c0 2.8566-4.0081 5.1724-8.9522 5.1724s-8.9523-2.3158-8.9523-5.1724 4.0081-5.1724 8.9523-5.1724 8.9522 2.3158 8.9522 5.1724z" fill="#c83737" stroke="#0e0101" stroke-linejoin="round"/>
  <path d="m47.83 26.97c1.0214 0.17827 2.1788 2.6035 4.436 0.13126 1.2391-1.63 2.2632-2.9292 4.6515-1.0845 2.4673 1.7657 3.2328-0.98307 4.377-1.5728" fill="none" stroke="#000" stroke-width=".22244"/>
  <path d="m48.012 28.38c1.0214 0.17807 2.1788 2.6033 4.436 0.13111 1.2391-1.63 2.2632-2.929 4.6515-1.0842 2.4674 1.7657 3.2328-0.98302 4.377-1.5727" fill="none" stroke="#000" stroke-width=".22244"/>
  <path d="m48.281 29.772c1.0215 0.17828 2.1788 2.6036 4.436 0.13121 1.2391-1.6299 2.263-2.929 4.6514-1.0844 2.4674 1.7657 3.2329-0.98302 4.3771-1.5727" fill="none" stroke="#000" stroke-width=".22244"/>
  <path d="m40.842 34.765z" fill="none" stroke="#000" stroke-width=".22244"/>
  <path d="m43.405 34.144c-0.01764-0.02348 0 0.05915 0 0z" fill="none" stroke="#000" stroke-width=".22244"/>
  <path d="m57.015 38.754z" fill="none" stroke="#000" stroke-width=".22244"/>
  <path d="m43.493 43.008c-0.01521-0.02531 0.05898 0 0 0z" fill="none" stroke="#000" stroke-width=".22244"/>
  <path d="m48.354 42.388c0.02095-0.02081 0 0.05915 0 0z" fill="none" stroke="#000" stroke-width=".22244"/>
  <path d="m55.689 42.919z" fill="none" stroke="#000" stroke-width=".22244"/>
  <path d="m40.047 46.997z" fill="none" stroke="#000" stroke-width=".22244"/>
  <text transform="scale(.99851 1.0015)" x="34.61915" y="32.5892" font-family="Arial" font-size="2.2244">
   <tspan x="34.61915" y="32.5892">To</tspan>
  </text>
 </g>
</svg>
