<?xml version="1.0" encoding="UTF-8"?>
<svg viewBox="0 0 600 600" xmlns="http://www.w3.org/2000/svg">
 <defs>
  <linearGradient id="d" x1="197.14" x2="228.47" y1="358.56" y2="357.58" gradientUnits="userSpaceOnUse">
   <stop stop-color="#f4a460" offset="0"/>
   <stop stop-color="#c8650d" offset="1"/>
  </linearGradient>
  <linearGradient id="c" x1="115.74" x2="469.11" y1="360.28" y2="365.18" gradientUnits="userSpaceOnUse">
   <stop stop-color="#386eb2" offset="0"/>
   <stop stop-color="#23446f" offset="1"/>
  </linearGradient>
  <linearGradient id="e" x1="113.24" x2="493.21" gradientUnits="userSpaceOnUse">
   <stop stop-color="#edd400" offset="0"/>
   <stop stop-color="#f9e854" offset=".46032"/>
   <stop stop-color="#d6c000" offset="1"/>
  </linearGradient>
  <linearGradient id="a" x1="148.49" x2="440.17" y1="86.382" y2="522.22" gradientUnits="userSpaceOnUse">
   <stop stop-color="#fa0000" stop-opacity=".64286" offset="0"/>
   <stop stop-color="#bc0000" stop-opacity=".58163" offset="1"/>
  </linearGradient>
  <radialGradient id="b" cx="182.31" cy="130.56" r="200.24" gradientTransform="matrix(.80412 -.059199 .011095 .1507 56.875 168.06)" gradientUnits="userSpaceOnUse">
   <stop stop-color="#bababa" offset="0"/>
   <stop stop-color="#8a8a8a" offset="1"/>
  </radialGradient>
 </defs>
 <path d="m297.27 12.136c-0.3148 7.2e-4 -0.59211 0.09083-0.90756 0.0948-160.24 2.0105-289.61 131.31-289.61 290.33 0 160.27 131.44 290.42 293.42 290.42s293.42-130.15 293.42-290.42-131.44-290.33-293.42-290.33c-0.94911 0-1.9598-0.097-2.9042-0.0948zm-3.9933 58.198c1.9419-0.05074 3.8547 0 5.8084 0 125.04 0 226.53 104.55 226.53 233.36 4e-5 25.661-3.9961 50.361-11.435 73.459l-386.53-225.97c40.357-48.132 99.5-79.124 165.63-80.852zm-210.37 163.5 385.17 225.12c-41.494 47.853-101.84 78.008-168.99 78.008-125.04 1e-4 -226.53-104.46-226.53-233.27 0-24.302 3.6462-47.819 10.346-69.857z" fill="#c00"/>
 <path d="m297.27 12.136c-0.3148 7.2e-4 -0.59211 0.09083-0.90756 0.0948-160.24 2.0105-289.61 131.31-289.61 290.33 0 160.27 131.44 290.42 293.42 290.42s293.42-130.15 293.42-290.42-131.44-290.33-293.42-290.33c-0.94911 0-1.9598-0.097-2.9042-0.0948zm-3.9933 58.198c1.9419-0.05074 3.8547 0 5.8084 0 125.04 0 226.53 104.55 226.53 233.36 4e-5 25.661-3.9961 50.361-11.435 73.459l-386.53-225.97c40.357-48.132 99.5-79.124 165.63-80.852zm-210.37 163.5 385.17 225.12c-41.494 47.853-101.84 78.008-168.99 78.008-125.04 1e-4 -226.53-104.46-226.53-233.27 0-24.302 3.6462-47.819 10.346-69.857z" fill="url(#a)"/>
 <path d="m126.66 167.47h346.91a23.425 29.498 0 0 1 23.425 29.498v222.88a23.425 29.498 0 0 1 -23.425 29.498h-346.91a23.425 29.498 0 0 1 -23.425 -29.498v-222.88a23.425 29.498 0 0 1 23.425 -29.498" fill="url(#c)" stroke="#000" stroke-width="7.0329"/>
 <path d="m180.21 152.51 259.41-0.39253c24.762 1.1422 43.317 12.922 56.394 31.848 5.7205 8.2788-12.382 16.749-27.763 16.749l-336.63 1.0468c-15.381 0-29.841-7.6126-27.763-16.749 3.1276-13.751 35.839-31.931 76.349-32.502z" fill="url(#b)" stroke="#000" stroke-width="7.0329"/>
 <g transform="matrix(5.8542 0 0 4.7132 -893.28 -1311.1)" stroke="#000">
  <path d="m192.69 344.25v20.469c0.0881 2.3152 10.617 6.3189 19.803 6.1068 9.1844-0.21207 19.893-3.5192 19.916-6.0386v-20.537h-39.719z" fill="url(#d)"/>
  <path transform="matrix(1.0043 0 0 1 -.56565 -.95955)" d="m231.92 344.87a19.738 7.5252 0 1 1 -39.477 0 19.738 7.5252 0 1 1 39.477 0z" fill="#f4a460"/>
 </g>
 <path d="m330.56 230.98c-10.147 4.4248-12.234 16.174-17.718 24.128-10.294 19.607-17.474 40.644-26.453 60.385-7.4588 2.9072-3.5395 12.545 4.3305 11.416 6.9328-0.50717 23.996 3.2514 23.447-6.9238-0.42593-5.433-11.159-4.6979-6.1245-11.205 1.7674-6.9658 3.0883-15.478 14.105-12.209 8.7178 2.3563 26-5.2593 28.073 4.8378 0.75814 4.6989 7.9912 12.094 0.01362 14.559-6.5563 4.571-0.0617 12.722 7.4856 10.994 12.754-0.18925 24.21-0.59698 36.871 0 6.5459 1.5229 19.22-0.95695 14.476-8.7736-2.0691-3.6642-9.9952-2.8887-7.7949-8.3509 0.28865-14.218 0.57739-28.435 0.86612-42.653 8.5619 15.818 13.402 33.937 26.169 47.621 9.9567 2.973 12.444-9.8802 16.17-15.027 5.3906-10.118 10.767-20.238 15.69-30.533-0.46503 14.87 1.7431 30.931-0.06186 45.243-7.5889 0.57252-11.119 10.665-2.4746 12.156 9.8042-0.46887 21.876 2.9195 30.437-1.9027 4.9368-5.2066-2.8856-9.114-6.867-11.628-0.88789-22.017-1.9504-44.939-0.8661-66.595 11.67 0.06047 11.542-15.083-0.43304-13.636-8.6194-0.42271-22.782-2.1573-24.409 8.0448-6.4998 16.015-14.391 31.632-22.856 46.764-9.707-17.044-15.754-35.577-25.55-52.431-7.4874-4.5966-18.615-2.5474-27.097-1.6384-8.2002 3.5916-1.6683 12.286 5.5678 12.421 0.26221 22.359-0.62023 45.566-2.3509 67.705-4.2871 4.601-9.4572-0.40734-9.6782-4.8929-9.6503-26.074-18.724-53.243-36.968-75.761-1.6017-1.2867-3.6966-2.4583-6.0009-2.1141zm-169.94 0.05282c-21.781-0.15688-38.201 19.964-30.685 37.367 6.7625 17.326 31.313 16.634 47.945 21.67 14.665 3.8953 9.1766 22.726-4.3306 24.63-14.059 4.3454-29.665-2.324-34.582-14.376-4.4976-7.8018-18.268-1.8491-14.909 5.8667 9.1733 29.688 67.246 31.737 78.692 2.3784 7.2265-15.176-2.502-34.923-22.457-37.42-10.746-3.4495-28.994-1.3666-32.726-13.213-3.3345-11.805 13.912-17.906 24.56-12.526 9.0513 2.042 11.879 14.427 21.9 12.473 5.7422-4.0807 3.85-12.789 1.2373-18.076-8.4605-7.8586-22.799-9.1602-34.644-8.7736zm52.461 1.8499c-8.9112-0.01003-9.1334 10.904-0.92798 12.579 4.6912 4.6102-0.15532 13.743 1.6085 19.661-0.71234 16.169 1.3175 32.981-0.80421 48.837-7.8771 1.4373-9.8391 12.254-0.4949 12.843 9.528-1.0936 22.174 3.3607 29.881-2.6427 4.1514-5.5399-4.1319-9.3816-8.4754-11.258 1.0547-6.1391-3.7187-17.986 2.4745-20.296 21.008-0.65874 48.239-7.64 52.585-27.907 3.7269-13.365-6.8452-27.962-23.076-29.968-17.178-3.5187-35.266-1.2983-52.771-1.8499zm30.128 13.002c10.811-0.83114 26.754 3.4399 24.87 15.222-1.1763 13.992-21.062 17.646-34.459 18.182 1.614-10.325-2.9868-22.592 1.8559-32.082 2.0841-1.3173 5.1773-1.1295 7.7331-1.3213zm88.59 13.689c3.95 7.6079 7.5701 15.396 10.764 23.203-6.4671-2.385-29.933 5.4351-22.766-5.1268 3.4094-5.6905 7.0634-19.354 11.192-19.646l0.79833 1.5476 0.01186 0.02298z" fill-opacity=".3237"/>
 <path d="m320.26 223.36c-10.147 4.4248-12.234 16.174-17.718 24.128-10.294 19.607-17.474 40.644-26.453 60.385-7.4588 2.9072-3.5395 12.545 4.3305 11.416 6.9328-0.50718 23.996 3.2514 23.447-6.9238-0.42591-5.433-11.159-4.6979-6.1246-11.205 1.7675-6.9658 3.0884-15.478 14.105-12.209 8.7178 2.3562 26-5.2593 28.073 4.8378 0.75813 4.6989 7.9912 12.094 0.0136 14.559-6.5563 4.571-0.06168 12.722 7.4856 10.994 12.754-0.18926 24.21-0.59698 36.871 0 6.546 1.5229 19.22-0.95697 14.476-8.7736-2.0691-3.6642-9.9952-2.8887-7.7949-8.3509 0.28867-14.218 0.57739-28.435 0.86613-42.653 8.5619 15.818 13.402 33.937 26.169 47.621 9.9568 2.973 12.444-9.8803 16.17-15.027 5.3906-10.118 10.767-20.238 15.69-30.533-0.46506 14.87 1.743 30.931-0.06187 45.243-7.5889 0.57251-11.119 10.665-2.4746 12.156 9.8042-0.46888 21.876 2.9195 30.437-1.9028 4.9368-5.2066-2.8857-9.114-6.867-11.628-0.8879-22.017-1.9504-44.939-0.8661-66.595 11.67 0.06047 11.542-15.083-0.43305-13.636-8.6194-0.42273-22.782-2.1573-24.409 8.0449-6.4998 16.015-14.391 31.632-22.856 46.764-9.707-17.044-15.754-35.577-25.55-52.431-7.4874-4.5966-18.615-2.5474-27.097-1.6384-8.2002 3.5915-1.6683 12.286 5.5678 12.42 0.26222 22.359-0.62023 45.566-2.3509 67.705-4.2871 4.601-9.4572-0.40736-9.6782-4.8929-9.6503-26.074-18.724-53.243-36.968-75.761-1.6017-1.2867-3.6967-2.4583-6.0008-2.1141zm-169.94 0.05281c-21.781-0.15687-38.201 19.964-30.685 37.367 6.7625 17.326 31.313 16.634 47.945 21.67 14.665 3.8952 9.1765 22.726-4.3306 24.63-14.059 4.3455-29.665-2.3239-34.582-14.376-4.4976-7.8018-18.268-1.8491-14.909 5.8668 9.1733 29.688 67.246 31.737 78.692 2.3784 7.2265-15.176-2.502-34.923-22.457-37.42-10.746-3.4495-28.994-1.3667-32.726-13.213-3.3345-11.805 13.912-17.906 24.56-12.526 9.0513 2.042 11.879 14.427 21.9 12.473 5.7422-4.0807 3.85-12.789 1.2373-18.076-8.4605-7.8586-22.799-9.1602-34.644-8.7737zm52.461 1.8499c-8.9112-0.01002-9.1334 10.904-0.92799 12.579 4.6912 4.6102-0.15531 13.743 1.6085 19.661-0.71233 16.169 1.3175 32.981-0.80422 48.837-7.8771 1.4373-9.8391 12.254-0.49489 12.843 9.528-1.0936 22.174 3.3607 29.881-2.6427 4.1514-5.5399-4.1319-9.3815-8.4754-11.258 1.0547-6.1391-3.7187-17.986 2.4746-20.296 21.008-0.65873 48.239-7.64 52.585-27.907 3.7269-13.365-6.8453-27.962-23.076-29.968-17.178-3.5187-35.266-1.2983-52.771-1.8498zm30.128 13.002c10.811-0.83115 26.754 3.4399 24.87 15.222-1.1763 13.992-21.062 17.646-34.459 18.182 1.614-10.325-2.9868-22.592 1.8559-32.082 2.0841-1.3173 5.1773-1.1296 7.7331-1.3213zm88.59 13.689c3.95 7.6079 7.5701 15.396 10.764 23.203-6.4672-2.385-29.933 5.4351-22.766-5.1268 3.4094-5.6905 7.0635-19.354 11.192-19.646l0.79833 1.5477 0.01184 0.02299z" fill="url(#e)"/>
 <path d="m297.27 12.136c-0.3148 7.2e-4 -0.59211 0.09083-0.90756 0.0948-160.24 2.0105-289.61 131.31-289.61 290.33 0 160.27 131.44 290.42 293.42 290.42s293.42-130.15 293.42-290.42-131.44-290.33-293.42-290.33c-0.94911 0-1.9598-0.097-2.9042-0.0948zm-3.9933 58.198c1.9419-0.05074 3.8547 0 5.8084 0 125.04 0 226.53 104.55 226.53 233.36 4e-5 25.661-3.9961 50.361-11.435 73.459l-386.53-225.97c40.357-48.132 99.5-79.124 165.63-80.852zm-210.37 163.5 385.17 225.12c-41.494 47.853-101.84 78.008-168.99 78.008-125.04 1e-4 -226.53-104.46-226.53-233.27 0-24.302 3.6462-47.819 10.346-69.857z" fill="url(#a)"/>
</svg>
